<svg xmlns="http://www.w3.org/2000/svg" width="420" height="220" viewBox="0 0 420 220" role="img" aria-labelledby="title desc">
  <title id="title">Certificate assistance desk</title>
  <desc id="desc">A service desk with official documents, a verified agent, and a citizen profile card.</desc>
  <rect width="420" height="220" fill="#fbfaf7"/>
  <rect x="28" y="34" width="158" height="132" rx="8" fill="#eef6f5" stroke="#0f766e" stroke-width="3"/>
  <rect x="48" y="58" width="114" height="12" rx="6" fill="#114b46"/>
  <rect x="48" y="86" width="92" height="9" rx="4" fill="#8ab9b4"/>
  <rect x="48" y="108" width="120" height="9" rx="4" fill="#8ab9b4"/>
  <rect x="48" y="130" width="76" height="9" rx="4" fill="#8ab9b4"/>
  <circle cx="152" cy="142" r="18" fill="#c88925"/>
  <path d="M143 142l7 7 13-17" fill="none" stroke="#fff" stroke-width="5" stroke-linecap="round" stroke-linejoin="round"/>
  <rect x="210" y="62" width="154" height="112" rx="8" fill="#ffffff" stroke="#ded9ce" stroke-width="3"/>
  <circle cx="254" cy="105" r="24" fill="#c8563f"/>
  <path d="M218 160c7-25 29-38 54-38s47 13 54 38" fill="#f3cabf"/>
  <rect x="292" y="84" width="42" height="10" rx="5" fill="#114b46"/>
  <rect x="292" y="108" width="56" height="8" rx="4" fill="#8ab9b4"/>
  <rect x="292" y="128" width="46" height="8" rx="4" fill="#8ab9b4"/>
  <rect x="74" y="178" width="252" height="18" rx="8" fill="#114b46"/>
  <rect x="96" y="192" width="36" height="10" rx="5" fill="#0f766e"/>
  <rect x="272" y="192" width="36" height="10" rx="5" fill="#0f766e"/>
</svg>
